<svg viewBox="0 0 32 32" xml:space="preserve" xmlns="http://www.w3.org/2000/svg" enable-background="new 0 0 32 32"><g id="icons"><path d="M16 2C8.3 2 2 8.3 2 16s6.3 14 14 14 14-6.3 14-14S23.7 2 16 2zm5.4 21.7c-.4.3-1 .5-1.5.5-.7 0-1.4-.3-1.9-1l-2.8-3.7c-.2-.3-.7-.1-.7.2v2c0 1.4-1.1 2.5-2.5 2.4-1.3-.1-2.3-1.2-2.3-2.5V10.2c0-1.4 1.1-2.5 2.5-2.4 1.3.1 2.3 1.2 2.3 2.5v1.9c0 .4.5.5.7.2L18 8.8c.8-1.1 2.4-1.3 3.5-.4 1 .8 1.1 2.3.3 3.4l-2.9 3.8c-.2.2-.2.6 0 .8l2.9 3.9c.7 1 .6 2.5-.4 3.4z" id="k" fill="#00db8e" class="fill-222a30"></path></g></svg>